<svg width="110" height="110" viewBox="0 0 110 110" fill="none" xmlns="http://www.w3.org/2000/svg">
<path d="M109.863 55.1694C109.863 85.2563 85.4726 109.647 55.3857 109.647C25.2988 109.647 0.908569 85.2563 0.908569 55.1694C0.908569 25.0825 25.2988 0.6922 55.3857 0.6922C85.4726 0.6922 109.863 25.0825 109.863 55.1694Z" fill="url(#paint0_linear_1_752)"/>
<path fill-rule="evenodd" clip-rule="evenodd" d="M55.3857 108.781C84.9949 108.781 108.998 84.7785 108.998 55.1694C108.998 25.5602 84.9949 1.5573 55.3857 1.5573C25.7766 1.5573 1.77367 25.5602 1.77367 55.1694C1.77367 84.7785 25.7766 108.781 55.3857 108.781ZM55.3857 109.647C85.4726 109.647 109.863 85.2563 109.863 55.1694C109.863 25.0825 85.4726 0.6922 55.3857 0.6922C25.2988 0.6922 0.908569 25.0825 0.908569 55.1694C0.908569 85.2563 25.2988 109.647 55.3857 109.647Z" fill="url(#paint1_linear_1_752)"/>
<path d="M46.639 73.0002V65.4781L40.8711 62.2323L36.2568 59.5017V59.2441L40.8711 56.462L46.639 53.2677V45.7456L30.9326 56.2559V62.4899L46.639 73.0002Z" fill="black"/>
<path d="M51.0816 76.453H54.813L59.6637 42.1249H55.9324L51.0816 76.453Z" fill="black"/>
<path d="M64.4794 73.0002L80.1859 62.4899V56.2559L64.4794 45.7456V53.2677L70.2473 56.462L74.8616 59.2441V59.5017L70.2473 62.2323L64.4794 65.4781V73.0002Z" fill="black"/>
<path fill-rule="evenodd" clip-rule="evenodd" d="M47.5042 74.62L30.0675 62.9519V55.7938L47.5042 44.1258V53.7775L41.3042 57.211L37.7281 59.3671L41.3036 61.483L47.5042 64.9723V74.62ZM40.8711 62.2323L36.2568 59.5017V59.2441L40.8711 56.462L46.639 53.2677V45.7456L30.9326 56.2559V62.4899L46.639 73.0002V65.4781L40.8711 62.2323ZM50.0857 77.3181L55.1809 41.2598H60.6596L55.5644 77.3181H50.0857ZM63.6143 74.62V64.9723L69.8149 61.4829L73.3903 59.3671L69.8142 57.211L63.6143 53.7775V44.1258L81.051 55.7938V62.9519L63.6143 74.62ZM70.2473 56.462L74.8616 59.2441V59.5017L70.2473 62.2323L64.4794 65.4781V73.0002L80.1859 62.4899V56.2559L64.4794 45.7456V53.2677L70.2473 56.462ZM54.813 76.453H51.0816L55.9324 42.1249H59.6637L54.813 76.453Z" fill="black"/>
<path d="M11.9546 62.5741L10.0884 63.0057L11.5402 69.283L17.4782 67.9096L16.9681 65.7041L15.3987 66.0671L14.5747 62.5043L12.7085 62.9359L13.5325 66.4987L12.8963 66.6458L11.9546 62.5741Z" fill="black"/>
<path d="M11.789 53.6208C10.4314 53.6628 9.48606 54.6415 9.5289 56.0252L9.6771 60.8116L15.7689 60.623L15.6988 58.3604L14.2716 58.4045L14.2304 57.0731L15.6314 56.1847L15.5485 53.5044L13.8327 54.6376C13.4203 53.9797 12.6766 53.5933 11.789 53.6208ZM11.5216 58.4897L11.4569 56.4011C11.4499 56.1748 11.4413 55.8963 11.859 55.8834C12.2767 55.8705 12.2854 56.149 12.2924 56.3752L12.357 58.4638L11.5216 58.4897Z" fill="black"/>
<path d="M16.2357 48.7886C16.6945 46.1553 15.8812 44.8381 13.7969 44.4749C11.7211 44.1132 10.5188 45.0792 10.0599 47.7124C9.59958 50.3543 10.3973 51.6599 12.4816 52.0231C14.5745 52.3878 15.7753 51.4304 16.2357 48.7886ZM14.3486 48.4597C14.12 49.7721 13.5135 49.905 12.8702 49.7929C12.2355 49.6823 11.7168 49.3622 11.947 48.0413C12.1771 46.7203 12.7821 46.596 13.4083 46.7051C14.043 46.8157 14.5773 47.1474 14.3486 48.4597Z" fill="black"/>
<path d="M13.3154 36.967L16.6453 38.3242L12.323 39.4019L11.2057 42.1433L16.8496 44.4436L17.704 42.3473L14.3741 40.9901L18.6964 39.9123L19.8137 37.171L14.1698 34.8707L13.3154 36.967Z" fill="black"/>
<path d="M19.4296 26.5926L15.1997 32.7711L16.7802 33.8532L18.2558 31.6979L21.7043 34.0588L22.9831 32.1908L19.5346 29.8299L21.0102 27.6746L19.4296 26.5926Z" fill="black"/>
<path d="M22.3543 26.522L23.5625 27.776L28.5784 22.9431L27.3702 21.6891L22.3543 26.522Z" fill="black"/>
<path d="M33.8609 16.591L32.9168 15.1278L27.5028 18.6206L30.8069 23.742L36.2209 20.2491L35.2769 18.7859L31.7651 21.0515L31.4583 20.576L34.9701 18.3103L34.1677 17.0666L30.6559 19.3322L30.3491 18.8567L33.8609 16.591Z" fill="black"/>
<path d="M39.8987 12.001L41.1921 15.3562L37.4453 12.9468L34.6831 14.0115L36.8752 19.6983L38.9875 18.8841L37.6941 15.5289L41.4409 17.9383L44.2031 16.8736L42.0109 11.1868L39.8987 12.001Z" fill="black"/>
<path d="M48.744 9.78295L44.2703 10.479L45.2074 16.5013L49.681 15.8052C51.135 15.579 52.3529 14.4026 52.0344 12.355C51.7158 10.3074 50.1979 9.55673 48.744 9.78295ZM48.6983 14.0196L47.1497 14.2605L46.8017 12.0237L48.3502 11.7827C48.832 11.7078 49.6235 11.5846 49.7975 12.703C49.9716 13.8215 49.1801 13.9446 48.6983 14.0196Z" fill="black"/>
<path d="M62.0754 9.73653L57.5887 9.13003L56.7723 15.1698L61.2589 15.7763C62.7171 15.9734 64.2196 15.1925 64.4972 13.139C64.7748 11.0854 63.5335 9.93364 62.0754 9.73653ZM60.8253 13.7848L59.2722 13.5748L59.5754 11.3315L61.1285 11.5414C61.6117 11.6067 62.4055 11.714 62.2539 12.8357C62.1022 13.9574 61.3084 13.8501 60.8253 13.7848Z" fill="black"/>
<path d="M72.4824 14.2877L73.0484 12.6409L66.9554 10.5465L64.9742 16.3102L71.0672 18.4046L71.6333 16.7578L67.681 15.3993L67.865 14.8641L71.8173 16.2226L72.2984 14.8229L68.3462 13.4643L68.5301 12.9291L72.4824 14.2877Z" fill="black"/>
<path d="M79.9821 16.2796L76.1996 19.3016L77.0302 14.5319L74.8875 13.2633L73.9552 19.7941L76.8472 21.5063L82.1248 17.5482L79.9821 16.2796Z" fill="black"/>
<path d="M87.3564 24.377L88.5287 23.0894L83.7645 18.7519L79.6615 23.2586L84.4257 27.5961L85.598 26.3085L82.5077 23.4949L82.8887 23.0765L85.979 25.89L86.9754 24.7955L83.8852 21.982L84.2662 21.5635L87.3564 24.377Z" fill="black"/>
<path d="M87.9756 28.8098L91.3024 26.2803L89.9323 24.4783L85.0807 28.1672L88.875 33.1573L90.3998 31.9979L87.9756 28.8098Z" fill="black"/>
<path d="M91.0633 37.214C92.2452 39.6115 93.6787 40.1959 95.5764 39.2604C97.4663 38.3288 97.868 36.8397 96.6861 34.4422C95.5004 32.0369 94.0864 31.4527 92.1887 32.3881C90.2832 33.3274 89.8777 34.8087 91.0633 37.214ZM92.7814 36.3671C92.1924 35.1722 92.6039 34.7073 93.1896 34.4186C93.7675 34.1337 94.3752 34.0865 94.968 35.2892C95.5609 36.4918 95.1456 36.9489 94.5755 37.2299C93.9976 37.5148 93.3704 37.5619 92.7814 36.3671Z" fill="black"/>
<path d="M100.284 44.4446L99.0987 39.8051L93.1938 41.3143L93.7544 43.5075L95.1378 43.1539L95.763 45.6002C96.1058 46.9415 97.2856 47.6195 98.6016 47.2832C99.9175 46.9468 100.627 45.7859 100.284 44.4446ZM97.511 44.7042L96.9936 42.6796L97.8034 42.4727L98.3209 44.4972C98.3769 44.7165 98.4459 44.9864 98.041 45.0899C97.6361 45.1934 97.5671 44.9235 97.511 44.7042Z" fill="black"/>
<path d="M99.9104 55.5789L101.649 55.4847L101.301 49.0512L95.2149 49.3808L95.5634 55.8144L97.3022 55.7202L97.0762 51.5471L97.6413 51.5165L97.8673 55.6896L99.3453 55.6095L99.1192 51.4364L99.6843 51.4058L99.9104 55.5789Z" fill="black"/>
<path d="M98.4227 64.2492C99.768 64.4363 100.865 63.6306 101.055 62.2595L101.715 57.5164L95.6783 56.6769L95.3665 58.9191L96.7808 59.1158L96.5973 60.4352L95.0667 61.075L94.6973 63.7311L96.5794 62.9028C96.8751 63.6208 97.5431 64.1269 98.4227 64.2492ZM99.5059 59.4947L99.2181 61.5644C99.1869 61.7886 99.1485 62.0646 98.7346 62.007C98.3206 61.9495 98.359 61.6735 98.3902 61.4493L98.678 59.3796L99.5059 59.4947Z" fill="black"/>
<path d="M96.659 65.327C94.9531 64.7191 94.0836 65.8882 93.2449 68.242C92.4061 70.5959 92.3404 72.0513 93.9233 72.6153C95.4242 73.1501 96.0798 71.8032 96.9766 69.5717C97.47 68.3426 97.5348 68.1346 97.7563 68.2136C97.9777 68.2925 97.9539 68.515 97.5973 69.5156C97.2262 70.5572 96.9852 71.0259 96.6818 70.9178L95.9219 73.0502C97.39 73.5733 98.3814 72.5032 99.1792 70.2641C99.9858 68.0005 99.8858 66.5692 98.6227 66.1191C97.2859 65.6428 96.5058 66.4832 95.5003 69.0457C94.98 70.3761 94.88 70.5531 94.6339 70.4654C94.4207 70.3894 94.4059 70.1716 94.8559 68.9085C95.3381 67.5552 95.6203 67.36 95.8991 67.4594L96.659 65.327Z" fill="black"/>
<defs>
<linearGradient id="paint0_linear_1_752" x1="55.3857" y1="0.6922" x2="55.3857" y2="109.647" gradientUnits="userSpaceOnUse">
<stop stop-color="#9FA6FF"/>
<stop offset="1" stop-color="#7A84FF"/>
</linearGradient>
<linearGradient id="paint1_linear_1_752" x1="112.11" y1="29.2879" x2="11.7588" y2="89.9558" gradientUnits="userSpaceOnUse">
<stop stop-color="#7E87FF"/>
<stop offset="0.932292" stop-color="#9DA4FF"/>
</linearGradient>
</defs>
</svg>
