<svg width="56" height="61" viewBox="0 0 56 61" fill="none" xmlns="http://www.w3.org/2000/svg">
<path d="M1.5999 0.316406C0.878028 0.316406 0.399902 0.794532 0.399902 1.51641V59.1164C0.399902 59.8383 0.878028 60.3164 1.5999 60.3164H6.3999C7.12178 60.3164 7.5999 59.8383 7.5999 59.1164V38.7164H54.3999C55.0608 38.7164 55.5999 38.1773 55.5999 37.5164V1.51641C55.5999 0.855469 55.0608 0.316406 54.3999 0.316406H1.5999ZM7.5999 2.71641H18.3999V13.5164H30.3999V2.71641H42.3999V13.5164H53.1999V25.5164H42.3999V36.3164H30.3999V25.5164H18.3999V36.3164H7.5999V25.5164H18.3999V13.5164H7.5999V2.71641ZM30.3999 25.5164H42.3999V13.5164H30.3999V25.5164Z" fill="white"/>
</svg>
