<svg width="84" height="28" viewBox="0 0 84 28" fill="none" xmlns="http://www.w3.org/2000/svg">
<path d="M2.71561 23.0216H13.5731C13.3523 22.279 13.2319 21.5164 13.2319 20.7136C13.2319 16.3385 16.7641 12.8063 21.1391 12.8063C25.5142 12.8063 29.0464 16.3385 29.0464 20.7136C29.0464 21.5364 28.926 22.3392 28.6852 23.0818L62.4014 23.2825C62.1405 22.4797 61.98 21.6167 61.98 20.7136C61.98 16.3385 65.5122 12.8063 69.8872 12.8063C74.2623 12.8063 77.7945 16.3385 77.7945 20.7136C77.7945 21.6167 77.634 22.4596 77.3731 23.2624L79.4 22.7205C81.0056 22.2991 81.6077 21.5164 81.6077 21.5164C81.6077 21.5164 83.2132 19.5094 83.9156 15.315C84.618 11.1205 80.7045 9.41463 80.7045 9.41463C80.7045 9.41463 76.9917 8.35097 73.6402 7.16688C72.4962 6.68522 71.6734 4.1565 73.881 3.01256C76.189 1.8084 76.7308 2.10944 76.5301 1.60771C76.3358 1.12176 75.6707 0.541677 75.6291 0.505671C75.7095 0.504478 75.7892 0.503906 75.8679 0.503906H75.627C75.627 0.503906 75.6277 0.504502 75.6291 0.505671C73.8632 0.531857 71.695 0.857415 69.9675 2.0091C68.1814 3.21325 65.0706 3.77519 65.0706 3.77519C63.7461 3.51429 62.3011 3.41394 60.4748 3.41394C57.4042 3.41394 51.544 9.15373 46.3661 9.91636C43.6568 10.3177 30.4513 10.3177 27.9426 9.61532C25.4339 8.9129 20.8381 8.71221 17.326 9.51498C17.0249 9.57519 7.01042 11.8229 4.72253 14.9136C2.89624 17.342 0.708687 20.4126 0.708687 20.4126L2.71561 23.0216Z" fill="white"/>
<path d="M63.2845 20.7136C63.2845 17.061 66.2346 14.1108 69.8872 14.1108C73.5398 14.1108 76.49 17.061 76.49 20.7136C76.49 24.3662 73.5398 27.3164 69.8872 27.3164C66.2346 27.3164 63.2845 24.3662 63.2845 20.7136Z" fill="white"/>
<path d="M14.5364 20.7136C14.5364 17.061 17.4865 14.1108 21.1391 14.1108C24.7917 14.1108 27.7419 17.061 27.7419 20.7136C27.7419 24.3662 24.7917 27.3164 21.1391 27.3164C17.4865 27.3164 14.5364 24.3662 14.5364 20.7136Z" fill="white"/>
<path d="M44.8007 8.8527C51.1025 8.04993 56.6817 2.61117 56.6817 2.61117C35.0672 0.604252 28.7654 8.61187 28.7654 8.61187C28.7654 8.61187 38.499 9.65546 44.8007 8.8527Z" fill="white"/>
</svg>
