<svg width="207" height="206" viewBox="0 0 207 206" fill="none" xmlns="http://www.w3.org/2000/svg">
<path d="M203.656 80.671C215.937 136.046 181.003 190.892 125.628 203.174C70.2531 215.455 15.4067 180.521 3.12524 125.146C-9.15625 69.7713 25.7779 14.925 81.1528 2.64346C136.528 -9.63803 191.374 25.2961 203.656 80.671Z" fill="url(#paint0_linear_1_866)"/>
<path fill-rule="evenodd" clip-rule="evenodd" d="M125.275 201.582C179.77 189.495 214.15 135.52 202.063 81.0242C189.977 26.5286 136.002 -7.85077 81.506 4.23568C27.0104 16.3221 -7.36899 70.2975 4.71746 124.793C16.8039 179.289 70.7793 213.668 125.275 201.582ZM125.628 203.174C181.003 190.892 215.937 136.046 203.656 80.671C191.374 25.2961 136.528 -9.63803 81.1528 2.64346C25.7779 14.925 -9.15625 69.7713 3.12524 125.146C15.4067 180.521 70.2531 215.455 125.628 203.174Z" fill="url(#paint1_linear_1_866)"/>
<path d="M20.0594 105.716L14.1803 106.181L14.5268 110.561L20.4059 110.095C21.6525 109.997 22.8171 110.362 23.021 112.94C23.2249 115.517 22.1491 116.06 20.8857 116.16L15.0066 116.625L15.3531 121.005L21.2322 120.54C25.3425 120.215 27.1375 117.835 26.727 112.647C26.3179 107.475 24.1528 105.392 20.0594 105.716Z" fill="black"/>
<path d="M14.7268 98.732L14.4399 103.116L26.2433 103.889L26.5303 99.5044L14.7268 98.732Z" fill="black"/>
<path d="M16.0426 87.1223L15.3068 91.2822L29.0181 98.1694L29.754 94.0094L16.0426 87.1223Z" fill="black"/>
<path d="M27.7682 70.7577L22.2275 68.7376L20.7226 72.8653L26.2633 74.8854C27.4381 75.3137 28.3455 76.1302 27.4599 78.5592C26.5743 80.9882 25.3702 81.0348 24.1795 80.6007L18.6388 78.5807L17.1339 82.7084L22.6746 84.7285C26.5483 86.1408 29.1699 84.7224 30.9526 79.8326C32.7296 74.9587 31.6261 72.1642 27.7682 70.7577Z" fill="black"/>
<path d="M33.3766 71.9192L36.4902 67.0906L35.2615 62.7596L39.7136 62.0915L42.8271 57.2629L34.8253 58.7586L32.8858 50.8528L29.7723 55.6814L31.001 60.0124L26.5489 60.6804L23.4354 65.509L31.4371 64.0133L33.3766 71.9192Z" fill="black"/>
<path d="M47.54 36.2463L40.7643 41.8411L48.2958 50.9622L55.0715 45.3674C57.2736 43.5491 58.1403 40.379 55.5796 37.2778C53.0189 34.1766 49.7421 34.428 47.54 36.2463ZM51.662 43.3615L49.3166 45.2982L46.5192 41.9103L48.8646 39.9737C49.5943 39.3711 50.7931 38.3813 52.1918 40.0752C53.5905 41.7691 52.3917 42.759 51.662 43.3615Z" fill="black"/>
<path d="M67.5634 27.4675L65.949 24.4984L54.9633 30.4717L60.6137 40.8636L71.5994 34.8903L69.985 31.9212L62.8591 35.7957L62.3344 34.8308L69.4603 30.9562L68.0881 28.4325L60.9622 32.307L60.4375 31.3421L67.5634 27.4675Z" fill="black"/>
<path d="M71.9904 29.8735C73.0353 33.2294 75.8629 33.2163 80.4934 31.7747C85.124 30.333 87.4593 28.7387 86.4899 25.6248C85.5706 22.6722 82.7162 23.2246 78.2079 24.4335C75.7253 25.1003 75.327 25.242 75.1914 24.8063C75.0558 24.3707 75.429 24.1483 77.3974 23.5355C79.4464 22.8976 80.4547 22.7253 80.6405 23.3222L84.8354 22.0162C83.9363 19.1282 81.1201 18.8369 76.7154 20.2082C72.2624 21.5946 70.1576 23.4179 70.9312 25.9026C71.7499 28.5325 73.9634 28.7637 79.1121 27.3377C81.7832 26.5946 82.1744 26.5436 82.3251 27.0276C82.4557 27.4471 82.1348 27.724 79.6501 28.4976C76.988 29.3264 76.3562 29.116 76.1854 28.5675L71.9904 29.8735Z" fill="black"/>
<path d="M91.476 16.953L87.1369 17.6427L88.9939 29.3248L93.3329 28.6351L91.476 16.953Z" fill="black"/>
<path d="M101.642 23.8349L104.818 23.7847C104.662 24.5815 103.635 24.8343 101.945 24.861C99.3601 24.9018 98.8836 23.6249 98.8609 22.1887C98.8385 20.7694 99.2605 19.6643 101.863 19.6232C103.721 19.5939 104.592 20.1379 104.77 20.7434L109.264 20.6725C109.028 17.4483 106.535 15.8314 101.804 15.9061C96.9378 15.9829 94.4005 17.9833 94.4653 22.0891C94.5303 26.2117 97.1297 28.148 101.489 28.0792C103.973 28.0401 105.516 27.3059 106.494 26.1243L106.842 27.8258L109.377 27.7858L109.275 21.3484L101.604 21.4694L101.642 23.8349Z" fill="black"/>
<path d="M123.984 18.2248L122.594 25.0639L118.983 17.2081L113.353 16.0634L110.997 27.655L115.302 28.5303L116.692 21.6913L120.303 29.5471L125.933 30.6917L128.29 19.1002L123.984 18.2248Z" fill="black"/>
<path d="M142.668 28.2519L143.986 25.1397L132.471 20.2638L127.859 31.1563L139.374 36.0322L140.691 32.92L133.222 29.7573L133.651 28.7458L141.12 31.9086L142.24 29.2633L134.771 26.1005L135.199 25.0891L142.668 28.2519Z" fill="black"/>
<path d="M156.761 38.3698C158.239 36.1865 157.774 33.5868 155.549 32.0811L147.851 26.8726L141.222 36.6694L144.861 39.1315L146.414 36.8363L148.555 38.2852L148.36 41.499L152.67 44.4158L152.838 40.4284C154.342 40.5278 155.795 39.7973 156.761 38.3698ZM149.407 32.4138L152.765 34.6866C153.129 34.9328 153.577 35.2358 153.123 35.9076C152.668 36.5794 152.22 36.2763 151.856 36.0301L148.497 33.7573L149.407 32.4138Z" fill="black"/>
<path d="M157.432 42.6001C154.909 45.0472 156.197 47.5645 159.574 51.0459C162.95 54.5273 165.427 55.8916 167.768 53.6211C169.988 51.4682 168.206 49.1704 165.093 45.693C163.377 43.7786 163.071 43.4871 163.399 43.1695C163.726 42.8518 164.093 43.0845 165.528 44.5644C167.023 46.1049 167.631 46.9269 167.183 47.3622L170.241 50.516C172.413 48.4102 171.402 45.7656 168.19 42.4541C164.943 39.1061 162.366 38.0509 160.498 39.8627C158.52 41.7803 159.313 43.8598 162.909 47.8106C164.778 49.8588 165 50.1849 164.636 50.5378C164.321 50.8437 163.929 50.6823 162.117 48.8143C160.176 46.8128 160.079 46.154 160.491 45.754L157.432 42.6001Z" fill="black"/>
<path d="M77.5549 70.5093L102.218 90.8573L133.924 86.7236L113.575 111.387L117.709 143.092L93.0459 122.744L61.3405 126.878L81.6885 102.215L77.5549 70.5093Z" fill="black"/>
<path d="M138.925 105.501L149.576 114.288L163.267 112.503L154.48 123.153L156.265 136.844L145.615 128.057L131.924 129.842L140.71 119.192L138.925 105.501Z" fill="black"/>
<defs>
<linearGradient id="paint0_linear_1_866" x1="103.39" y1="0.185089" x2="103.39" y2="205.632" gradientUnits="userSpaceOnUse">
<stop stop-color="#FFE34E"/>
<stop offset="1" stop-color="#FBC53C"/>
</linearGradient>
<linearGradient id="paint1_linear_1_866" x1="210.351" y1="54.1058" x2="21.1264" y2="168.503" gradientUnits="userSpaceOnUse">
<stop stop-color="#FCC93E"/>
<stop offset="0.932292" stop-color="#FFE34E"/>
</linearGradient>
</defs>
</svg>
