<svg width="287" height="59" viewBox="0 0 287 59" fill="none" xmlns="http://www.w3.org/2000/svg">
<path d="M42.4817 10.3968H44.4817V8.39682H42.4817V10.3968ZM17.9057 10.3968V8.39682H15.9057V10.3968H17.9057ZM17.9057 17.6448H15.9057V19.6448H17.9057V17.6448ZM33.8417 17.6448H35.8417V15.6448H33.8417V17.6448ZM10.8017 27.1488H12.8017V25.1488H10.8017V27.1488ZM2.16166 27.1488V25.1488H0.161656L0.161656 27.1488H2.16166ZM42.4817 8.39682H17.9057V12.3968H42.4817V8.39682ZM15.9057 10.3968V17.6448H19.9057V10.3968H15.9057ZM17.9057 19.6448H33.8417V15.6448H17.9057V19.6448ZM31.8417 17.6448V27.1488H35.8417V17.6448H31.8417ZM31.8417 27.1488C31.8417 29.3636 31.5142 31.2814 30.3741 32.6606C29.2943 33.9668 27.1039 35.2288 22.3217 35.2288V39.2288C27.7634 39.2288 31.333 37.7788 33.4572 35.2091C35.5211 32.7123 35.8417 29.59 35.8417 27.1488H31.8417ZM22.3217 35.2288C17.5337 35.2288 15.3447 33.9757 14.2672 32.6762C13.1303 31.3051 12.8017 29.391 12.8017 27.1488H8.80166C8.80166 29.6107 9.121 32.7365 11.1881 35.2294C13.3146 37.794 16.8856 39.2288 22.3217 39.2288V35.2288ZM10.8017 25.1488H2.16166V29.1488H10.8017V25.1488ZM0.161656 27.1488C0.161656 33.3582 1.85116 38.3419 5.74842 41.7167C9.58453 45.0386 15.1953 46.4768 22.3217 46.4768V42.4768C15.624 42.4768 11.1548 41.1071 8.36689 38.6929C5.64015 36.3317 4.16166 32.6515 4.16166 27.1488H0.161656ZM22.3217 46.4768C29.4294 46.4768 35.0375 45.0243 38.8771 41.6986C42.7766 38.3209 44.4817 33.3406 44.4817 27.1488H40.4817C40.4817 32.6211 38.9947 36.3048 36.2582 38.6751C33.4618 41.0973 28.9899 42.4768 22.3217 42.4768V46.4768ZM44.4817 27.1488V10.3968H40.4817V27.1488H44.4817ZM70.2823 46.4768C77.8806 46.4768 83.7166 44.8879 87.6681 41.5088C91.6817 38.0766 93.4023 33.1033 93.4023 27.1488H89.4023C89.4023 32.3303 87.9309 36.021 85.0685 38.4688C82.1439 40.9697 77.42 42.4768 70.2823 42.4768V46.4768ZM93.4023 27.1488C93.4023 21.2155 91.6798 16.2644 87.6635 12.8509C83.7119 9.49238 77.8775 7.91682 70.2823 7.91682V11.9168C77.4231 11.9168 82.1486 13.4133 85.0731 15.8988C87.9327 18.3292 89.4023 21.9942 89.4023 27.1488H93.4023ZM70.2823 7.91682C62.6681 7.91682 56.8313 9.47827 52.8833 12.8327C48.869 16.2434 47.1623 21.1979 47.1623 27.1488H51.1623C51.1623 21.9638 52.6235 18.3022 55.4733 15.881C58.3893 13.4034 63.1124 11.9168 70.2823 11.9168V7.91682ZM47.1623 27.1488C47.1623 33.1209 48.8672 38.0976 52.8787 41.527C56.8266 44.9021 62.665 46.4768 70.2823 46.4768V42.4768C63.1155 42.4768 58.394 40.9796 55.4779 38.4866C52.6254 36.048 51.1623 32.3607 51.1623 27.1488H47.1623ZM70.2823 35.2288C65.9498 35.2288 63.4092 34.4483 61.9526 33.241C60.5891 32.1109 59.8023 30.284 59.8023 27.1488H55.8023C55.8023 30.9257 56.7674 34.1387 59.4 36.3207C61.9393 38.4253 65.6388 39.2288 70.2823 39.2288V35.2288ZM59.8023 27.1488C59.8023 24.0345 60.5786 22.2377 61.9286 21.1276C63.3775 19.9362 65.9177 19.1648 70.2823 19.1648V15.1648C65.6228 15.1648 61.9231 15.9535 59.388 18.038C56.754 20.204 55.8023 23.3992 55.8023 27.1488H59.8023ZM70.2823 19.1648C74.6409 19.1648 77.1825 19.946 78.6332 21.1433C79.988 22.2614 80.7623 24.0624 80.7623 27.1488H84.7623C84.7623 23.4192 83.8086 20.2282 81.1793 18.0583C78.6461 15.9676 74.9477 15.1648 70.2823 15.1648V19.1648ZM80.7623 27.1488C80.7623 30.2561 79.9774 32.0872 78.6093 33.2253C77.1508 34.4385 74.6088 35.2288 70.2823 35.2288V39.2288C74.9317 39.2288 78.6298 38.4112 81.1673 36.3004C83.7951 34.1145 84.7623 30.9056 84.7623 27.1488H80.7623ZM107.029 10.3968H109.029V8.39682H107.029V10.3968ZM98.3885 10.3968V8.39682H96.3885V10.3968H98.3885ZM98.3885 43.9968H96.3885V45.9968H98.3885V43.9968ZM107.029 43.9968V45.9968H109.029V43.9968H107.029ZM107.029 8.39682H98.3885V12.3968H107.029V8.39682ZM96.3885 10.3968V43.9968H100.389V10.3968H96.3885ZM98.3885 45.9968H107.029V41.9968H98.3885V45.9968ZM109.029 43.9968V10.3968H105.029V43.9968H109.029ZM149.353 10.3968V8.39682H147.353V10.3968H149.353ZM149.353 35.6448L147.873 36.9899L151.353 40.8195V35.6448H149.353ZM126.409 10.3968L127.889 9.05176L127.294 8.39682H126.409V10.3968ZM114.697 10.3968V8.39682H112.697V10.3968H114.697ZM114.697 43.9968H112.697V45.9968H114.697V43.9968ZM123.337 43.9968V45.9968H125.337V43.9968H123.337ZM123.337 18.7968L124.818 17.4519L121.337 13.6214V18.7968H123.337ZM146.233 43.9968L144.753 45.3418L145.348 45.9968H146.233V43.9968ZM157.993 43.9968V45.9968H159.993V43.9968H157.993ZM157.993 10.3968H159.993V8.39682H157.993V10.3968ZM147.353 10.3968V35.6448H151.353V10.3968H147.353ZM150.833 34.2998L127.889 9.05176L124.929 11.7419L147.873 36.9899L150.833 34.2998ZM126.409 8.39682H114.697V12.3968H126.409V8.39682ZM112.697 10.3968V43.9968H116.697V10.3968H112.697ZM114.697 45.9968H123.337V41.9968H114.697V45.9968ZM125.337 43.9968V18.7968H121.337V43.9968H125.337ZM121.857 20.1417L144.753 45.3418L147.714 42.6519L124.818 17.4519L121.857 20.1417ZM146.233 45.9968H157.993V41.9968H146.233V45.9968ZM159.993 43.9968V10.3968H155.993V43.9968H159.993ZM157.993 8.39682H149.353V12.3968H157.993V8.39682ZM233.992 10.3968H235.992V8.39682H233.992V10.3968ZM225.352 10.3968V8.39682H223.352V10.3968H225.352ZM200.392 10.3968H202.392V8.39682H200.392V10.3968ZM191.752 10.3968V8.39682H189.752V10.3968H191.752ZM235.992 27.1488V10.3968H231.992V27.1488H235.992ZM233.992 8.39682H225.352V12.3968H233.992V8.39682ZM223.352 10.3968V27.1488H227.352V10.3968H223.352ZM223.352 27.1488C223.352 29.3598 223.025 31.2404 221.811 32.6064C220.628 33.9376 218.188 35.2288 212.872 35.2288V39.2288C218.741 39.2288 222.54 37.8081 224.801 35.2633C227.032 32.7533 227.352 29.5938 227.352 27.1488H223.352ZM212.872 35.2288C207.551 35.2288 205.112 33.9469 203.931 32.6221C202.721 31.2641 202.392 29.3873 202.392 27.1488H198.392C198.392 29.6144 198.712 32.7776 200.945 35.2836C203.208 37.8227 207.009 39.2288 212.872 39.2288V35.2288ZM202.392 27.1488V10.3968H198.392V27.1488H202.392ZM200.392 8.39682H191.752V12.3968L200.392 12.3968V8.39682ZM189.752 10.3968V27.1488H193.752V10.3968L189.752 10.3968ZM189.752 27.1488C189.752 33.3606 191.444 38.3621 195.486 41.7395C199.447 45.0494 205.293 46.4768 212.872 46.4768V42.4768C205.667 42.4768 200.954 41.0962 198.051 38.6701C195.228 36.3116 193.752 32.649 193.752 27.1488H189.752ZM212.872 46.4768C220.433 46.4768 226.277 45.0354 230.241 41.7213C234.285 38.3409 235.992 33.3431 235.992 27.1488H231.992C231.992 32.6186 230.508 36.2847 227.676 38.6524C224.764 41.0862 220.048 42.4768 212.872 42.4768V46.4768ZM240.956 32.4288V30.4288H238.956V32.4288H240.956ZM262.412 23.7408L262.295 25.7374L262.303 25.7379L262.412 23.7408ZM273.788 21.3888H271.788V23.3888H273.788V21.3888ZM282.428 21.3888V23.3888H284.428V21.3888H282.428ZM262.412 30.1728L262.509 28.1752L262.504 28.1749L262.412 30.1728ZM249.596 32.4288H251.596V30.4288H249.596V32.4288ZM238.956 32.4288C238.956 35.1384 239.532 37.4898 240.755 39.4578C241.981 41.4294 243.763 42.8646 245.921 43.894C250.136 45.9041 256.033 46.4768 262.94 46.4768V42.4768C256.071 42.4768 250.977 41.8736 247.643 40.2836C246.027 39.5131 244.896 38.5422 244.152 37.3459C243.406 36.1458 242.956 34.5672 242.956 32.4288H238.956ZM262.94 46.4768C269.164 46.4768 274.765 46.0354 278.855 44.2808C280.944 43.3842 282.735 42.1063 283.991 40.2883C285.255 38.4609 285.868 36.2477 285.868 33.6768H281.868C281.868 35.594 281.419 36.9747 280.701 38.0138C279.976 39.0623 278.866 39.9235 277.277 40.6048C274.011 42.0063 269.148 42.4768 262.94 42.4768V46.4768ZM285.868 33.6768C285.868 31.2182 285.268 29.1223 283.966 27.4243C282.68 25.7477 280.861 24.6567 278.784 23.9106C274.74 22.4579 269.041 22.0982 262.521 21.7438L262.303 25.7379C269.031 26.1035 274.06 26.4637 277.432 27.6751C279.063 28.2609 280.124 28.988 280.791 29.8583C281.442 30.7073 281.868 31.8875 281.868 33.6768H285.868ZM262.529 21.7443C257.55 21.4514 254.864 21.1912 253.408 20.7564C252.714 20.5492 252.598 20.3823 252.621 20.4098C252.679 20.4809 252.604 20.486 252.604 20.0928H248.604C248.604 20.9957 248.781 22.0327 249.523 22.9409C250.23 23.8054 251.23 24.2804 252.264 24.5892C254.264 25.1865 257.482 25.4543 262.295 25.7374L262.529 21.7443ZM252.604 20.0928C252.604 19.9116 252.623 19.8111 252.636 19.7635C252.642 19.741 252.647 19.7304 252.648 19.7278C252.649 19.7257 252.649 19.7256 252.65 19.725C252.65 19.7243 252.656 19.717 252.671 19.7035C252.686 19.6895 252.714 19.6666 252.761 19.6368C252.858 19.5755 253.025 19.491 253.3 19.4004C254.516 18.9998 256.828 18.7808 261.116 18.7808V14.7808C256.909 14.7808 253.965 14.9698 252.048 15.6013C251.041 15.933 250.107 16.4512 249.454 17.3196C248.786 18.2064 248.604 19.2009 248.604 20.0928H252.604ZM261.116 18.7808C265.631 18.7808 268.485 19.0228 270.179 19.594C270.986 19.8662 271.345 20.1554 271.512 20.363C271.654 20.5394 271.788 20.8165 271.788 21.3888H275.788C275.788 20.1132 275.46 18.8902 274.629 17.8562C273.822 16.8532 272.696 16.2215 271.457 15.8037C269.059 14.9949 265.577 14.7808 261.116 14.7808V18.7808ZM273.788 23.3888H282.428V19.3888H273.788V23.3888ZM284.428 21.3888C284.428 18.9934 283.87 16.8586 282.725 15.031C281.583 13.2089 279.932 11.8117 277.93 10.766C273.991 8.70901 268.509 7.91682 262.076 7.91682V11.9168C268.315 11.9168 273.009 12.7086 276.078 14.3116C277.58 15.096 278.641 16.0477 279.335 17.1552C280.026 18.2571 280.428 19.6322 280.428 21.3888H284.428ZM262.076 7.91682C255.739 7.91682 250.359 8.49741 246.502 10.1845C244.54 11.0429 242.878 12.2277 241.712 13.8548C240.534 15.4997 239.964 17.4542 239.964 19.6608H243.964C243.964 18.1714 244.337 17.0599 244.964 16.1849C245.604 15.2919 246.612 14.5027 248.106 13.8491C251.161 12.5122 255.837 11.9168 262.076 11.9168V7.91682ZM239.964 19.6608C239.964 21.8004 240.377 23.7404 241.386 25.4185C242.4 27.1054 243.913 28.3572 245.821 29.2881C249.516 31.0919 255.013 31.8353 262.32 32.1707L262.504 28.1749C255.171 27.8383 250.444 27.0938 247.575 25.6935C246.201 25.0225 245.347 24.2433 244.814 23.3576C244.277 22.4633 243.964 21.2892 243.964 19.6608H239.964ZM262.315 32.1705C267.853 32.4388 270.784 32.69 272.349 33.1437C273.093 33.3594 273.209 33.5381 273.187 33.5095C273.14 33.451 273.228 33.4785 273.228 33.9648H277.228C277.228 33.0592 277.076 31.9827 276.329 31.0347C275.606 30.1165 274.561 29.6202 273.463 29.3019C271.344 28.6876 267.867 28.4348 262.509 28.1752L262.315 32.1705ZM273.228 33.9648C273.228 34.2517 273.166 34.3169 273.139 34.3488C273.072 34.4273 272.831 34.6451 272.116 34.8741C270.63 35.3499 267.967 35.6128 263.42 35.6128V39.6128C267.945 39.6128 271.186 39.3718 273.336 38.6836C274.439 38.3305 275.449 37.8013 276.179 36.9483C276.948 36.0488 277.228 34.9979 277.228 33.9648H273.228ZM263.42 35.6128C257.95 35.6128 254.849 35.1905 253.16 34.5011C252.367 34.1777 252.033 33.8527 251.874 33.6174C251.718 33.3869 251.596 33.0443 251.596 32.4288H247.596C247.596 33.5894 247.834 34.7827 248.56 35.8573C249.283 36.9269 250.353 37.6759 251.648 38.2046C254.135 39.2192 257.946 39.6128 263.42 39.6128V35.6128ZM249.596 30.4288H240.956V34.4288H249.596V30.4288Z" fill="url(#paint0_linear_202_13366)"/>
<defs>
<linearGradient id="paint0_linear_202_13366" x1="143.098" y1="0.996826" x2="143.098" y2="58.9968" gradientUnits="userSpaceOnUse">
<stop stop-color="#9FA6FF"/>
<stop offset="1" stop-color="#55FFAD"/>
</linearGradient>
</defs>
</svg>
